<?xml version="1.0" standalone="no"?>
<!DOCTYPE svg PUBLIC "-//W3C//DTD SVG 20010904//EN"
 "http://www.w3.org/TR/2001/REC-SVG-20010904/DTD/svg10.dtd">
<svg version="1.0" xmlns="http://www.w3.org/2000/svg"
 width="1152.000000pt" height="1152.000000pt" viewBox="0 0 1152.000000 1152.000000"
 preserveAspectRatio="xMidYMid meet">
<metadata>
Created by potrace 1.14, written by Peter Selinger 2001-2017
</metadata>
<g transform="translate(0.000000,1152.000000) scale(0.100000,-0.100000)"
fill="#000000" stroke="none">
<path d="M1555 10538 c-283 -78 -498 -297 -575 -583 -20 -74 -20 -110 -20
-4197 1 -3413 3 -4132 14 -4178 72 -296 310 -534 606 -606 82 -20 8278 -20
8360 0 297 73 533 309 606 606 20 84 20 8274 0 8352 -42 159 -102 272 -203
379 -104 110 -218 178 -377 225 l-81 24 -4130 -1 c-4057 -1 -4131 -2 -4200
-21z m8355 -314 c152 -53 268 -175 316 -333 10 -35 14 -116 14 -328 l0 -283
-4480 0 -4480 0 0 282 c0 299 2 311 52 415 53 111 127 179 253 235 l60 26
4110 1 c3700 1 4114 -1 4155 -15z m330 -4901 c0 -3085 -2 -3645 -14 -3684 -54
-177 -197 -310 -374 -348 -38 -8 -640 -11 -2152 -11 l-2100 0 0 640 0 640 948
4 c883 3 1031 7 1057 25 6 4 29 13 51 20 57 18 168 103 219 168 46 60 85 127
85 149 0 8 4 22 9 32 5 9 15 50 22 90 10 57 10 87 0 145 -7 39 -17 80 -22 89
-5 10 -9 24 -9 33 0 20 -34 79 -82 143 -59 79 -199 182 -247 182 -9 0 -21 4
-26 9 -6 5 -32 12 -60 16 -27 4 -692 9 -1477 11 l-1428 4 0 105 0 104 43 29
c57 40 173 162 229 242 133 188 208 442 208 701 0 93 1 96 25 107 14 7 32 12
39 12 22 0 74 64 86 105 8 29 10 125 6 340 -5 288 -11 366 -36 465 -6 25 -14
60 -17 78 -3 18 -9 35 -14 38 -5 3 -9 13 -9 22 0 31 -99 222 -157 305 -72 102
-219 249 -315 314 -80 55 -273 153 -300 153 -9 0 -19 4 -22 9 -3 5 -20 11 -38
14 -18 4 -49 9 -68 12 -19 4 -44 10 -55 15 -69 29 -404 30 -495 0 -14 -4 -52
-14 -85 -21 -33 -7 -64 -16 -69 -21 -6 -4 -16 -8 -24 -8 -26 0 -219 -97 -294
-148 -93 -64 -272 -244 -334 -337 -52 -78 -144 -260 -144 -287 0 -9 -4 -19 -9
-22 -4 -3 -11 -20 -15 -38 -3 -18 -11 -53 -17 -78 -24 -99 -30 -187 -35 -470
-4 -221 -2 -305 7 -335 13 -42 64 -105 85 -105 7 0 24 -5 37 -11 24 -11 25
-16 31 -138 9 -174 16 -244 27 -256 5 -5 9 -20 9 -34 0 -60 84 -254 158 -366
46 -69 202 -233 255 -268 l27 -18 0 -134 c0 -130 -1 -134 -22 -140 -13 -4 -36
-13 -53 -20 -16 -7 -79 -32 -140 -55 -60 -23 -123 -48 -140 -55 -16 -8 -42
-17 -58 -20 -15 -4 -30 -11 -33 -16 -3 -5 -12 -9 -20 -9 -8 0 -34 -9 -56 -20
-23 -11 -49 -20 -58 -20 -9 0 -20 -4 -26 -9 -5 -5 -40 -19 -77 -31 -83 -27
-190 -81 -274 -139 -81 -55 -234 -209 -285 -286 -71 -108 -135 -254 -160 -365
-27 -121 -30 -201 -35 -727 l-4 -563 -99 0 c-181 0 -290 40 -396 145 -67 67
-102 126 -128 214 -15 50 -16 376 -16 3688 l0 3633 4480 0 4480 0 0 -3637z
m-6066 1226 c22 -6 59 -15 81 -21 202 -52 418 -207 537 -383 60 -91 113 -203
136 -290 28 -105 32 -149 32 -354 l0 -221 -128 0 -128 0 -149 148 c-168 166
-203 187 -273 163 -20 -8 -138 -80 -261 -162 l-223 -149 -379 0 -379 0 0 226
c0 130 5 244 11 268 6 22 15 59 21 81 43 168 171 366 309 480 43 36 80 65 83
65 3 0 24 13 48 28 57 37 158 81 233 100 22 6 56 15 75 20 48 14 304 14 354 1z
m257 -1435 c145 -144 162 -154 287 -154 l83 0 -4 -157 c-5 -162 -13 -229 -28
-239 -5 -3 -9 -13 -9 -22 0 -32 -82 -181 -136 -246 -30 -36 -84 -90 -120 -120
-65 -54 -214 -136 -246 -136 -9 0 -19 -4 -22 -9 -11 -17 -81 -24 -236 -24
-155 0 -225 7 -236 24 -3 5 -13 9 -22 9 -9 0 -60 21 -112 47 -81 41 -109 62
-195 148 -83 84 -108 116 -147 194 -27 51 -48 102 -48 112 0 10 -4 20 -9 23
-15 10 -23 77 -28 239 l-4 157 322 0 c233 0 332 3 358 13 19 6 121 69 226 139
104 70 192 127 195 127 3 1 62 -56 131 -125z m-686 -1398 c116 -19 206 -29
255 -29 49 0 139 10 255 29 22 3 46 11 53 16 9 8 12 -8 12 -73 l0 -84 -160
-160 -160 -160 -160 160 -160 160 0 84 c0 65 3 81 13 73 6 -5 30 -13 52 -16z
m3821 -389 c26 -18 63 -55 81 -81 30 -44 33 -55 33 -122 0 -63 -4 -81 -27
-117 -28 -45 -77 -92 -120 -114 -20 -11 -219 -13 -1062 -13 -828 0 -1044 -3
-1074 -13 -50 -18 -92 -60 -106 -106 -8 -27 -11 -247 -11 -760 l0 -721 -1120
0 -1120 0 0 400 0 400 -160 0 -160 0 0 -400 0 -400 -240 0 -240 0 0 573 c0
651 -1 637 85 812 57 113 129 203 225 277 74 57 184 118 214 118 8 0 18 5 21
10 3 6 15 10 26 10 10 0 27 4 37 9 9 5 44 19 77 31 33 12 79 31 102 41 24 11
46 19 51 19 5 0 27 9 50 20 22 11 48 20 56 20 8 0 17 4 20 9 3 5 18 12 33 16
15 3 45 14 68 24 22 10 65 26 95 37 30 10 61 22 68 28 10 7 69 -46 232 -209
240 -239 262 -255 335 -233 33 9 84 54 270 238 l230 227 1491 2 1492 1 48 -33z"/>
<path d="M1920 9760 l0 -160 160 0 160 0 0 160 0 160 -160 0 -160 0 0 -160z"/>
<path d="M2560 9760 l0 -160 160 0 160 0 0 160 0 160 -160 0 -160 0 0 -160z"/>
<path d="M3200 9760 l0 -160 160 0 160 0 0 160 0 160 -160 0 -160 0 0 -160z"/>
<path d="M2240 8160 l0 -160 320 0 320 0 0 160 0 160 -320 0 -320 0 0 -160z"/>
<path d="M3200 8160 l0 -160 800 0 800 0 0 160 0 160 -800 0 -800 0 0 -160z"/>
<path d="M6195 8308 c-44 -15 -91 -64 -104 -107 -17 -60 -15 -1953 3 -2004 17
-49 54 -86 103 -103 56 -20 2910 -20 2966 -1 50 18 92 60 106 106 16 54 16
1948 0 2002 -14 45 -61 92 -108 108 -46 15 -2922 14 -2966 -1z m2765 -1108 l0
-800 -1280 0 -1280 0 0 800 0 800 1280 0 1280 0 0 -800z"/>
<path d="M2240 7520 l0 -160 1280 0 1280 0 0 160 0 160 -1280 0 -1280 0 0
-160z"/>
<path d="M6080 5600 l0 -160 640 0 640 0 0 160 0 160 -640 0 -640 0 0 -160z"/>
<path d="M7680 5600 l0 -160 800 0 800 0 0 160 0 160 -800 0 -800 0 0 -160z"/>
<path d="M6080 4960 l0 -160 640 0 640 0 0 160 0 160 -640 0 -640 0 0 -160z"/>
<path d="M7680 4960 l0 -160 800 0 800 0 0 160 0 160 -800 0 -800 0 0 -160z"/>
<path d="M6080 4320 l0 -160 640 0 640 0 0 160 0 160 -640 0 -640 0 0 -160z"/>
<path d="M7680 4320 l0 -160 800 0 800 0 0 160 0 160 -800 0 -800 0 0 -160z"/>
<path d="M6080 2080 l0 -160 160 0 160 0 0 160 0 160 -160 0 -160 0 0 -160z"/>
<path d="M6720 2080 l0 -160 480 0 480 0 0 160 0 160 -480 0 -480 0 0 -160z"/>
<path d="M3524 4618 c4 -13 9 -45 13 -71 3 -26 10 -50 14 -53 5 -3 9 -14 9
-26 0 -33 89 -157 139 -194 124 -90 242 -121 381 -100 25 4 54 11 65 16 11 4
36 14 55 21 64 24 148 97 195 169 25 38 45 78 45 89 0 11 4 22 9 25 4 3 11 27
14 53 4 26 9 58 13 71 l6 22 -161 0 -161 0 0 -34 c0 -27 -9 -42 -50 -80 -48
-45 -51 -46 -113 -46 -61 0 -64 1 -110 46 -38 37 -47 52 -47 80 l0 34 -161 0
-161 0 6 -22z"/>
</g>
</svg>
