<?xml version="1.0" encoding="UTF-8"?>
<svg version="1.1" xmlns="http://www.w3.org/2000/svg" width="450" height="237">
<path d="M0 0 C148.5 0 297 0 450 0 C450 78.21 450 156.42 450 237 C301.5 237 153 237 0 237 C0 158.79 0 80.58 0 0 Z " fill="#FDFEFE" transform="translate(0,0)"/>
<path d="M0 0 C11.10719475 6.01572154 18.5941657 14.92218087 22.2109375 27.03515625 C24.67802764 39.8474395 21.45769353 51.71594229 14.3671875 62.42578125 C10.40589587 67.52047359 5.37819476 70.55859439 -0.32421875 73.44921875 C-0.98808594 73.79210937 -1.65195312 74.135 -2.3359375 74.48828125 C-11.56614211 78.36895666 -25.70811169 78.06391792 -35.02734375 74.609375 C-45.47097966 69.33427319 -53.30307688 61.80565877 -57.19921875 50.63671875 C-60.57977622 39.23268627 -60.26451316 28.62440901 -55.0703125 17.84765625 C-44.30800906 -1.56554505 -20.34495408 -8.20128983 0 0 Z " fill="#07A0D9" transform="translate(384.32421875,158.55078125)"/>
<path d="M0 0 C1.01964844 -0.00773438 2.03929687 -0.01546875 3.08984375 -0.0234375 C4.57677734 -0.01957031 4.57677734 -0.01957031 6.09375 -0.015625 C7.43469727 -0.01224121 7.43469727 -0.01224121 8.80273438 -0.00878906 C11.5 0.25 11.5 0.25 17.5 2.25 C17.5 7.53 17.5 12.81 17.5 18.25 C16.448125 18.085 15.39625 17.92 14.3125 17.75 C10.47910938 17.28451685 6.67293412 17.08773714 2.8125 17 C1.73613281 16.97421875 0.65976563 16.9484375 -0.44921875 16.921875 C-3.90109607 17.29313965 -5.75790639 18.14839541 -8.5 20.25 C-9.25 22.75 -9.25 22.75 -8.5 25.25 C-5.15889388 28.44803609 -1.03751275 29.56257657 3.25 31 C11.71194985 34.00434974 18.44097897 37.86931541 22.5 46.25 C23.38459791 53.36663002 23.70314939 61.31709816 19.83203125 67.609375 C14.75952829 73.8570326 8.49323167 77.93273557 0.5 79.25 C-1.17145245 79.33791007 -2.84577008 79.3805772 -4.51953125 79.3828125 C-5.45990234 79.38410156 -6.40027344 79.38539063 -7.36914062 79.38671875 C-8.82610352 79.38091797 -8.82610352 79.38091797 -10.3125 79.375 C-11.75206055 79.38080078 -11.75206055 79.38080078 -13.22070312 79.38671875 C-28.38398197 79.36601803 -28.38398197 79.36601803 -30.5 77.25 C-30.57325168 74.38732433 -30.59238205 71.549281 -30.5625 68.6875 C-30.55798828 67.88119141 -30.55347656 67.07488281 -30.54882812 66.24414062 C-30.53700518 64.24606244 -30.51906914 62.24802217 -30.5 60.25 C-29.38625 60.415 -28.2725 60.58 -27.125 60.75 C-22.17008001 61.28823412 -17.22964693 61.43177191 -12.25 61.5 C-11.07945068 61.5319043 -11.07945068 61.5319043 -9.88525391 61.56445312 C-5.28361354 61.59209653 -2.20703263 61.29558171 1.5 58.25 C2.33356413 55.79412036 2.33356413 55.79412036 1.5 53.25 C-2.14238469 49.78298939 -5.61947707 48.31616097 -10.375 46.8125 C-19.56895625 43.64217026 -25.03195716 40.07530775 -29.5 31.25 C-31.59350907 24.96947278 -31.21991316 19.03309596 -28.5 13 C-25.26637886 7.17398571 -20.97794377 3.81480675 -14.96484375 1.109375 C-9.96581426 -0.13051957 -5.1300991 -0.03891352 0 0 Z " fill="#08A0D9" transform="translate(203.5,155.75)"/>
<path d="M0 0 C1.29647461 -0.01836914 1.29647461 -0.01836914 2.61914062 -0.03710938 C3.90014648 -0.04000977 3.90014648 -0.04000977 5.20703125 -0.04296875 C6.35328979 -0.04913208 6.35328979 -0.04913208 7.52270508 -0.05541992 C11.14040406 0.27436574 14.66326398 1.30644099 18.1875 2.1875 C18.1875 9.1175 18.1875 16.0475 18.1875 23.1875 C16.640625 22.6925 15.09375 22.1975 13.5 21.6875 C5.75326619 19.61105589 -2.99500321 18.10844341 -10.3125 22.1875 C-15.19343055 25.89990269 -18.31930553 29.94463726 -19.25390625 36.08984375 C-19.50478019 42.50736099 -18.89854154 48.05619202 -14.8125 53.1875 C-9.82196783 57.72434743 -5.51938281 59.34067927 1.25 59.4375 C2.31347656 59.46328125 3.37695312 59.4890625 4.47265625 59.515625 C9.32546471 59.21300211 9.32546471 59.21300211 18.1875 56.1875 C18.1875 63.1175 18.1875 70.0475 18.1875 77.1875 C5.69171091 79.96434202 -8.30792743 81.82124284 -20.19921875 75.8671875 C-30.88411654 68.99946545 -37.67723283 60.46699082 -40.8125 48.1875 C-41.22171469 45.02750799 -41.29116512 41.93365234 -41.25 38.75 C-41.23755249 37.50114014 -41.23755249 37.50114014 -41.22485352 36.22705078 C-40.93449765 25.66057731 -37.22424115 17.77363506 -29.8125 10.1875 C-20.3383263 2.62796767 -11.91591785 0.00876815 0 0 Z " fill="#08A0D9" transform="translate(286.8125,155.8125)"/>
<path d="M0 0 C1.29647461 -0.01836914 1.29647461 -0.01836914 2.61914062 -0.03710938 C3.90014648 -0.04000977 3.90014648 -0.04000977 5.20703125 -0.04296875 C6.35328979 -0.04913208 6.35328979 -0.04913208 7.52270508 -0.05541992 C11.14040406 0.27436574 14.66326398 1.30644099 18.1875 2.1875 C18.1875 9.1175 18.1875 16.0475 18.1875 23.1875 C15.83625 22.445 15.83625 22.445 13.4375 21.6875 C5.88440243 19.65584313 -1.98542155 18.53091596 -9.3125 21.875 C-13.89076824 24.56307036 -16.78315632 28.31878049 -18.8125 33.1875 C-19.70928807 39.62885279 -19.77353551 45.58819735 -16.3125 51.25 C-13.07252539 55.33943431 -9.92362129 57.93681779 -4.8125 59.1875 C3.87853298 60.14451515 9.55718425 58.77659473 18.1875 56.1875 C18.1875 63.1175 18.1875 70.0475 18.1875 77.1875 C5.69171091 79.96434202 -8.30792743 81.82124284 -20.19921875 75.8671875 C-30.36378116 69.33391121 -37.56403737 60.92882439 -40.8125 49.1875 C-41.23803301 45.86287383 -41.27805223 42.59841652 -41.25 39.25 C-41.26998047 38.40759766 -41.28996094 37.56519531 -41.31054688 36.69726562 C-41.30567608 30.37009662 -39.77834021 25.7398044 -36.8125 20.1875 C-36.36648437 19.32898438 -35.92046875 18.47046875 -35.4609375 17.5859375 C-30.42163106 9.57869598 -21.98613373 3.13774643 -12.7578125 0.62890625 C-8.50215501 -0.00887796 -4.29733037 0.00316213 0 0 Z " fill="#08A0D9" transform="translate(82.8125,155.8125)"/>
<path d="M0 0 C0.75023437 0.04125 1.50046875 0.0825 2.2734375 0.125 C5.830266 1.44847107 7.83445124 3.74977792 9.625 7 C10.33874644 10.47923605 10.28860793 13.8822796 10.24023438 17.42407227 C10.24578339 18.46054901 10.2513324 19.49702576 10.25704956 20.56491089 C10.26883676 23.98254988 10.24458011 27.39886048 10.21875 30.81640625 C10.21703873 33.19481852 10.21710475 35.57323267 10.21887207 37.9516449 C10.21721939 42.93238405 10.19852861 47.91267282 10.16699219 52.89331055 C10.12729375 59.27804121 10.12294989 65.6621826 10.13045502 72.04701328 C10.13352405 76.95665385 10.1214068 81.86616189 10.10432434 86.77577019 C10.09729299 89.13009752 10.09416997 91.48443987 10.09501648 93.83877754 C10.09321925 97.12790216 10.07184339 100.41631985 10.04492188 103.70532227 C10.04785248 104.67844864 10.05078308 105.65157501 10.05380249 106.65419006 C9.97707455 112.72842855 9.21294772 116.31962557 4.875 120.8125 C1.55720821 122.56355678 -0.68097275 122.51845997 -4.375 122 C-7.00516161 119.8272578 -8.84836894 118.05326212 -10.375 115 C-10.47315679 113.56694093 -10.51002016 112.12944545 -10.51544189 110.69303894 C-10.52115204 109.78878677 -10.52686218 108.88453461 -10.53274536 107.95288086 C-10.53386322 106.95804687 -10.53498108 105.96321289 -10.53613281 104.93823242 C-10.54109772 103.89258621 -10.54606262 102.84694 -10.55117798 101.76960754 C-10.56582518 98.29822134 -10.57260601 94.82688083 -10.578125 91.35546875 C-10.58387452 88.94891864 -10.58963228 86.54236855 -10.59539795 84.13581848 C-10.60591534 79.0842772 -10.61175312 74.03275187 -10.61523438 68.98120117 C-10.6207194 62.50450434 -10.64474471 56.02801772 -10.67320633 49.55138683 C-10.69181964 44.57830691 -10.69703763 39.60527773 -10.69857025 34.63216591 C-10.70160046 32.2443254 -10.70964131 29.85648585 -10.72275543 27.46867943 C-10.73978758 24.12894023 -10.73794232 20.78971604 -10.73144531 17.44995117 C-10.7406601 16.46118988 -10.74987488 15.47242859 -10.7593689 14.45370483 C-10.72925508 9.51844308 -10.70370135 5.94169214 -7.375 2 C-4.20726274 -0.11182484 -3.5894984 -0.29402035 0 0 Z " fill="#0CA2DA" transform="translate(331.375,1)"/>
<path d="M0 0 C0.78761719 0.06832031 1.57523438 0.13664063 2.38671875 0.20703125 C3.16660156 0.26246094 3.94648437 0.31789062 4.75 0.375 C8.05347408 1.29108945 9.04707646 2.20509943 11.07421875 5.01953125 C11.68820402 8.53421149 11.62017752 12.02361069 11.59179688 15.58374023 C11.59880615 16.65893921 11.60581543 17.73413818 11.61303711 18.84191895 C11.63065814 22.40008283 11.61897828 25.95745286 11.60546875 29.515625 C11.60816266 31.98657891 11.61204424 34.45753178 11.61706543 36.92848206 C11.62296624 42.10940637 11.61437909 47.29005498 11.59570312 52.47094727 C11.57292567 59.11362655 11.58602608 65.75565899 11.60999298 72.39831448 C11.62444508 77.5018247 11.61984734 82.60518152 11.60948181 87.70869637 C11.60681231 90.15792988 11.6100921 92.6071773 11.61940002 95.05639458 C11.62955407 98.47994764 11.61407837 101.90245275 11.59179688 105.32592773 C11.5998938 106.33959915 11.60799072 107.35327057 11.61633301 108.3976593 C11.56328527 112.7953645 11.50747625 115.31403207 9.16687012 119.12538147 C6.45095506 121.58367433 5.45939778 121.97592608 1.76171875 122.39453125 C-1.92578125 122.01953125 -1.92578125 122.01953125 -4.80078125 119.64453125 C-7.48918681 116.32355968 -8.05051448 114.83828813 -8.0796814 110.67460632 C-8.08828186 109.76194 -8.09688232 108.84927368 -8.10574341 107.90895081 C-8.11000336 106.90476608 -8.11426331 105.90058136 -8.11865234 104.8659668 C-8.12682983 103.81056702 -8.13500732 102.75516724 -8.14343262 101.66778564 C-8.16831105 98.16394626 -8.18480809 94.66014743 -8.19921875 91.15625 C-8.20454243 89.96177561 -8.2098661 88.76730122 -8.2153511 87.53663063 C-8.24209209 81.21558905 -8.26146483 74.8945673 -8.27587891 68.57348633 C-8.29253773 62.03611624 -8.33732387 55.4992492 -8.38825035 48.96206951 C-8.42186213 43.94266666 -8.43344969 38.92338414 -8.43910599 33.90387917 C-8.44583418 31.49368249 -8.46109658 29.08349416 -8.4849968 26.6734066 C-8.5165224 23.30227704 -8.51670354 19.93251682 -8.50927734 16.5612793 C-8.53388535 15.06411125 -8.53388535 15.06411125 -8.55899048 13.53669739 C-8.49756736 6.73516494 -8.49756736 6.73516494 -5.45181274 2.923172 C-4.61822235 2.29497055 -3.78463196 1.6667691 -2.92578125 1.01953125 C-1.92578125 0.01953125 -1.92578125 0.01953125 0 0 Z " fill="#069FD9" transform="translate(115.92578125,0.98046875)"/>
<path d="M0 0 C6.6 0 13.2 0 20 0 C20 25.41 20 50.82 20 77 C13.4 77 6.8 77 0 77 C0 51.59 0 26.18 0 0 Z " fill="#0BA2DA" transform="translate(127,157)"/>
<path d="M0 0 C4.03850285 2.72769423 7.19039733 6.67596726 8.7109375 11.33203125 C9.86250626 17.76869456 10.12113865 23.54772896 6.64453125 29.28125 C2.669114 34.46698163 -1.94256979 37.6499241 -8.40234375 38.87890625 C-14.93498307 39.2745164 -19.72010627 37.27541553 -24.91796875 33.40625 C-29.68287664 28.64134211 -31.01326783 23.68853537 -31.41796875 17.09375 C-31.29958443 10.8870291 -29.06232634 6.92651305 -24.91796875 2.40625 C-17.49706358 -4.01808277 -8.58351531 -4.20907931 0 0 Z " fill="#FAFDFE" transform="translate(376.91796875,177.59375)"/>
<path d="M0 0 C2.8100346 1.79363911 4.50940468 3.01880935 6 6 C6.10546854 7.6378677 6.14874002 9.27992941 6.16113281 10.92114258 C6.17074036 11.94593216 6.1803479 12.97072174 6.19024658 14.02656555 C6.19449646 15.13799423 6.19874634 16.24942291 6.203125 17.39453125 C6.20882507 18.53403732 6.21452515 19.6735434 6.22039795 20.84757996 C6.22985769 23.26271636 6.23638578 25.67786572 6.24023438 28.09301758 C6.24993266 31.7868507 6.28094464 35.48012586 6.3125 39.17382812 C6.31903061 41.51822586 6.32428085 43.86262757 6.328125 46.20703125 C6.3404718 47.31238724 6.3528186 48.41774323 6.36553955 49.55659485 C6.36253845 50.59084091 6.35953735 51.62508698 6.35644531 52.69067383 C6.36009094 53.59731277 6.36373657 54.50395172 6.36749268 55.43806458 C5.77135028 59.59400676 3.93634799 62.21971001 0.75 64.875 C-2.96369801 66.39424009 -5.15654948 66.04821378 -9 65 C-11.86942113 62.73466753 -12.83907612 61.48277163 -14 58 C-14.10717465 56.3241641 -14.15867666 54.64449151 -14.17700195 52.96533203 C-14.18983719 51.94061798 -14.20267242 50.91590393 -14.21589661 49.86013794 C-14.22328354 48.75387054 -14.23067047 47.64760315 -14.23828125 46.5078125 C-14.246353 45.36972137 -14.25442474 44.23163025 -14.26274109 43.05905151 C-14.27657684 40.64989748 -14.28730127 38.24072389 -14.29516602 35.83154297 C-14.31239976 32.14643342 -14.35629435 28.46221609 -14.40039062 24.77734375 C-14.41051576 22.4375066 -14.41903242 20.09766182 -14.42578125 17.7578125 C-14.44328934 16.65559357 -14.46079742 15.55337463 -14.47883606 14.41775513 C-14.45711411 6.76258066 -14.45711411 6.76258066 -12.09838867 2.82763672 C-8.37968959 -0.41124418 -4.79879607 -0.68948219 0 0 Z " fill="#0CA2DA" transform="translate(175,38)"/>
<path d="M0 0 C2.8100346 1.79363911 4.50940468 3.01880935 6 6 C6.11568576 7.66291118 6.16954651 9.33030316 6.19287109 10.99707031 C6.21696548 12.55944427 6.21696548 12.55944427 6.24154663 14.15338135 C6.28597039 18.92402539 6.32706834 23.6945295 6.35009766 28.46533203 C6.36665272 30.98137667 6.3939364 33.49737437 6.43212891 36.01318359 C6.48690326 39.63924585 6.50877458 43.26420469 6.5234375 46.890625 C6.54610687 48.01269348 6.56877625 49.13476196 6.59213257 50.29083252 C6.56856524 59.00807779 6.56856524 59.00807779 3.59619141 62.69775391 C0.47683069 65.46393517 -1.05108653 66.01836134 -5.0703125 66.23828125 C-8.29000661 65.84070769 -9.85662594 64.3324953 -12 62 C-13.88613533 58.90425936 -14.25927568 56.5629096 -14.29052734 52.95947266 C-14.30328705 51.95808258 -14.31604675 50.9566925 -14.32919312 49.92495728 C-14.33141876 48.848862 -14.33364441 47.77276672 -14.3359375 46.6640625 C-14.3425943 45.55195404 -14.3492511 44.43984558 -14.35610962 43.29403687 C-14.36623193 40.94213515 -14.37092677 38.59020473 -14.37060547 36.23828125 C-14.37497525 32.64535024 -14.41129183 29.05365093 -14.44921875 25.4609375 C-14.45508767 23.17448336 -14.45905656 20.8880234 -14.4609375 18.6015625 C-14.47530853 17.52951569 -14.48967957 16.45746887 -14.50448608 15.35293579 C-14.46736544 9.27383841 -14.12392781 5.59847249 -10 1 C-6.79826746 -0.60086627 -3.47422941 -0.49917089 0 0 Z " fill="#0BA2DA" transform="translate(388,38)"/>
<path d="M0 0 C0.7321875 -0.01289062 1.464375 -0.02578125 2.21875 -0.0390625 C5.65822082 0.96215332 7.72208917 2.57124601 9.5 5.625 C10.26258484 9.73378424 10.20038975 13.79961119 10.1640625 17.96875 C10.16884613 19.17059937 10.17362976 20.37244873 10.17855835 21.61071777 C10.18195753 24.14918325 10.17275412 26.68769249 10.15185547 29.22607422 C10.12509406 33.11134463 10.15160683 36.99372569 10.18359375 40.87890625 C10.18028966 43.34636054 10.17388345 45.81381304 10.1640625 48.28125 C10.17418365 49.44281616 10.18430481 50.60438232 10.19473267 51.80114746 C10.07815266 59.82393778 10.07815266 59.82393778 7.18115234 63.83789062 C3.84127188 66.0640721 1.49950691 66.55228169 -2.5 66.625 C-5.47550929 65.79846964 -6.29937856 64.90957337 -8.08312988 62.37939453 C-9.63653302 59.3595799 -9.88952362 57.54880265 -9.91992188 54.1796875 C-9.94378967 52.58278076 -9.94378967 52.58278076 -9.96813965 50.95361328 C-9.96834106 49.8139209 -9.96854248 48.67422852 -9.96875 47.5 C-9.97636353 46.32034668 -9.98397705 45.14069336 -9.99182129 43.92529297 C-10.00261528 41.43394078 -10.00547827 38.94254337 -10.00097656 36.45117188 C-10.00000346 32.63855725 -10.04165392 28.82794956 -10.0859375 25.015625 C-10.09114393 22.5937542 -10.0938327 20.1718764 -10.09375 17.75 C-10.11014526 16.61030762 -10.12654053 15.47061523 -10.14343262 14.29638672 C-10.06653629 5.49891422 -10.06653629 5.49891422 -7.10546875 2.40869141 C-4.44018709 0.58405237 -3.1883791 -0.05613343 0 0 Z " fill="#06A0D9" transform="translate(277.5,37.375)"/>
<path d="M0 0 C0.7321875 -0.01289062 1.464375 -0.02578125 2.21875 -0.0390625 C5.65056429 0.95992454 7.72188856 2.58047224 9.5 5.625 C10.23909563 9.66391072 10.1526698 13.65427762 10.09375 17.75 C10.09379028 18.92965332 10.09383057 20.10930664 10.09387207 21.32470703 C10.08851611 23.81613499 10.07093048 26.30756248 10.04199219 28.79882812 C10.00015143 32.61120263 10.00092351 36.42180968 10.0078125 40.234375 C9.99731947 42.65626227 9.98438077 45.07814044 9.96875 47.5 C9.96854858 48.63969238 9.96834717 49.77938477 9.96813965 50.95361328 C9.94427185 52.55052002 9.94427185 52.55052002 9.91992188 54.1796875 C9.91150269 55.11280762 9.9030835 56.04592773 9.89440918 57.00732422 C9.41711757 60.17508695 8.37634903 62.04452029 6.5 64.625 C2.9913604 66.96409307 1.62910567 67.03791057 -2.5 66.625 C-6.29578406 64.89964361 -7.97995113 63.47278952 -9.5 59.625 C-9.77415466 57.12757874 -9.77415466 57.12757874 -9.80639648 54.29321289 C-9.82238388 53.22853287 -9.83837128 52.16385284 -9.85484314 51.06690979 C-9.86020584 49.92205612 -9.86556854 48.77720245 -9.87109375 47.59765625 C-9.88463646 45.82605385 -9.88463646 45.82605385 -9.89845276 44.0186615 C-9.91295752 41.52133725 -9.92184255 39.02397497 -9.92553711 36.52661133 C-9.93744471 32.70524234 -9.98664156 28.88548189 -10.03710938 25.06445312 C-10.04657222 22.63802872 -10.05380792 20.21159439 -10.05859375 17.78515625 C-10.07812607 16.64232681 -10.09765839 15.49949738 -10.11778259 14.32203674 C-10.06754409 5.49533594 -10.06754409 5.49533594 -7.10766602 2.40649414 C-4.44149954 0.5850339 -3.1874071 -0.05611632 0 0 Z " fill="#059FD9" transform="translate(64.5,37.375)"/>
<path d="M0 0 C4.10007872 0.38679988 6.11398775 1.78344381 9.3125 4.3125 C11.52723075 8.7419615 10.54241139 14.7610461 10.5625 19.625 C10.583125 20.86185547 10.60375 22.09871094 10.625 23.37304688 C10.63015625 24.56607422 10.6353125 25.75910156 10.640625 26.98828125 C10.65464355 28.6266394 10.65464355 28.6266394 10.66894531 30.2980957 C10.26512223 33.71316666 9.34842253 35.56620824 7.3125 38.3125 C4.42888977 40.02707905 2.66774462 40.31990093 -0.6875 40.25 C-4.47858631 39.06528553 -6.80329568 37.81542302 -8.6875 34.3125 C-9.44931663 29.63922627 -9.38438015 25.03742191 -9.3125 20.3125 C-9.33183594 19.04148437 -9.35117187 17.77046875 -9.37109375 16.4609375 C-9.3166515 6.1169098 -9.3166515 6.1169098 -6.2109375 3 C-5.37820313 2.443125 -4.54546875 1.88625 -3.6875 1.3125 C-2.6875 0.3125 -2.6875 0.3125 0 0 Z " fill="#08A0D9" transform="translate(436.6875,63.6875)"/>
<path d="M0 0 C2.63016161 2.1727422 4.47336894 3.94673788 6 7 C6.27037128 11.09858275 6.23163672 15.20601043 6.25 19.3125 C6.270625 20.45396484 6.29125 21.59542969 6.3125 22.77148438 C6.31765625 23.87427734 6.3228125 24.97707031 6.328125 26.11328125 C6.3374707 27.12173096 6.34681641 28.13018066 6.35644531 29.16918945 C5.81121517 33.49928774 4.06789604 36.11008664 0.75 38.875 C-2.99262141 40.4060724 -5.13834846 40.12338954 -9 39 C-13.87519714 34.1936832 -13.57153077 30.03295467 -13.64453125 23.49609375 C-13.63808594 22.17738281 -13.63164062 20.85867187 -13.625 19.5 C-13.65722656 18.18128906 -13.68945312 16.86257812 -13.72265625 15.50390625 C-13.7321367 6.16566306 -13.7321367 6.16566306 -11.74536133 3.00244141 C-8.04847042 -0.23963425 -4.74828241 -0.86332407 0 0 Z " fill="#09A0D9" transform="translate(15,64)"/>
<path d="M0 0 C2.875 2.4375 2.875 2.4375 5 5 C5.33 5.33 5.66 5.66 6 6 C6.3389344 10.38769885 6.32519037 14.78840399 6.375 19.1875 C6.41238281 20.42048828 6.44976562 21.65347656 6.48828125 22.92382812 C6.58745409 33.13312074 6.58745409 33.13312074 3.7578125 36.8203125 C1.00811494 38.99358621 -0.06044958 39.80255538 -3.5 39.6875 C-4.59828125 39.69330078 -4.59828125 39.69330078 -5.71875 39.69921875 C-8.28828125 38.91163982 -10.1692098 37.95868515 -12.00537109 35.96411133 C-14.4350685 31.1661448 -13.66077185 25.23762417 -13.5625 20 C-13.57345703 18.72898437 -13.58441406 17.45796875 -13.59570312 16.1484375 C-13.5129417 5.66532401 -13.5129417 5.66532401 -9 1 C-5.86128812 -0.56935594 -3.46144178 -0.35201103 0 0 Z " fill="#08A0D9" transform="translate(228,64)"/>
</svg>
