<?xml version="1.0" standalone="no"?>
<!DOCTYPE svg PUBLIC "-//W3C//DTD SVG 20010904//EN"
 "http://www.w3.org/TR/2001/REC-SVG-20010904/DTD/svg10.dtd">
<svg version="1.0" xmlns="http://www.w3.org/2000/svg"
 width="300.000000pt" height="169.000000pt" viewBox="0 0 300.000000 169.000000"
 preserveAspectRatio="xMidYMid meet">
<metadata>
Created by potrace 1.10, written by Peter Selinger 2001-2011
</metadata>
<g transform="translate(0.000000,169.000000) scale(0.100000,-0.100000)"
fill="#000000" stroke="none">
<path d="M943 1218 c-15 -4 -37 -5 -50 -2 -41 11 -73 -4 -89 -42 -13 -31 -13
-38 1 -68 22 -45 25 -46 229 -33 41 2 51 12 61 60 7 35 25 26 25 -12 0 -33 20
-54 52 -52 96 5 132 15 121 35 -3 6 4 2 16 -9 14 -12 40 -21 65 -22 22 -2 46
-3 51 -4 6 0 56 0 112 1 57 1 107 -2 113 -5 21 -13 79 5 85 26 l7 21 21 -20
c19 -17 94 -31 117 -22 3 1 64 3 135 4 72 0 136 5 143 9 18 12 16 102 -4 121
-18 18 -23 19 -44 6 -9 -5 -19 -5 -27 1 -18 16 -307 7 -327 -10 -14 -12 -19
-11 -34 2 -14 12 -40 14 -132 12 -63 -1 -123 -6 -133 -10 -9 -4 -24 -2 -31 4
-8 7 -34 12 -58 11 -23 0 -80 -1 -126 0 -45 0 -91 -4 -102 -10 -11 -6 -26 -7
-33 -3 -18 12 -132 19 -164 11z m-35 -30 c-3 -7 -15 -13 -29 -13 -20 0 -25 -6
-27 -32 -2 -25 1 -33 12 -33 9 0 16 5 16 10 0 6 -5 10 -11 10 -5 0 -7 5 -4 10
3 6 15 10 26 10 25 0 27 -55 3 -64 -20 -8 -56 2 -66 18 -12 17 -9 71 4 84 16
16 81 16 76 0z m92 2 c0 -5 -9 -10 -20 -10 -11 0 -20 -6 -20 -14 0 -9 7 -12
20 -9 14 4 20 0 20 -11 0 -9 -8 -16 -20 -16 -11 0 -20 -4 -20 -10 0 -5 9 -10
20 -10 11 0 20 -7 20 -15 0 -10 -11 -15 -35 -15 l-35 0 0 60 0 60 35 0 c19 0
35 -4 35 -10z m98 -2 c-3 -7 -11 -13 -18 -13 -9 0 -14 -14 -14 -44 -1 -26 -6
-46 -13 -48 -9 -3 -13 10 -13 46 0 39 -4 51 -15 51 -8 0 -15 5 -15 10 0 6 21
10 46 10 32 0 44 -4 42 -12z m102 -3 c0 -8 -6 -12 -14 -9 -25 10 -26 -13 -1
-24 47 -22 21 -81 -31 -68 -30 8 -27 32 4 28 28 -4 29 14 2 23 -19 6 -28 44
-13 58 13 13 53 7 53 -8z m136 -2 c12 -17 13 -17 19 0 4 9 14 17 21 17 12 0
12 -5 -1 -30 -8 -16 -15 -43 -15 -60 0 -20 -5 -30 -15 -30 -10 0 -15 10 -15
33 -1 37 -20 67 -44 67 -13 0 -16 -10 -16 -50 0 -38 -4 -50 -15 -50 -11 0 -15
12 -15 50 0 38 -4 50 -15 50 -8 0 -15 5 -15 10 0 6 25 10 56 10 43 0 60 -4 70
-17z m87 -27 c-5 -40 -4 -44 21 -48 25 -5 26 -4 26 43 0 37 4 49 15 49 12 0
15 -13 15 -58 l0 -58 -50 -2 -50 -2 0 60 c0 44 4 60 14 60 10 0 12 -11 9 -44z
m142 12 l20 -33 3 33 c6 56 22 35 22 -28 0 -33 -4 -60 -9 -60 -5 0 -19 16 -31
35 -27 43 -32 44 -28 3 2 -18 -2 -33 -9 -35 -10 -3 -13 12 -13 56 0 71 14 80
45 29z m152 20 c-2 -7 -14 -12 -25 -11 -24 3 -45 -27 -36 -51 7 -17 34 -22 34
-6 0 6 -4 10 -10 10 -5 0 -10 5 -10 10 0 6 11 10 25 10 21 0 25 -5 25 -29 0
-41 -44 -56 -74 -25 -19 18 -21 75 -4 92 16 16 81 16 75 0z m83 -28 c4 -27 7
-31 13 -17 4 10 7 27 7 38 0 10 6 19 14 19 16 0 26 -21 26 -53 0 -18 2 -19 10
-7 5 8 10 25 10 38 0 13 6 22 15 22 8 0 15 -1 15 -2 -19 -111 -51 -151 -65
-81 -8 39 -9 38 -19 -9 -11 -47 -32 -33 -49 33 -14 55 -14 60 1 57 11 -2 19
-16 22 -38z m142 -16 c3 -53 -3 -71 -19 -61 -11 7 -3 117 7 117 4 0 10 -25 12
-56z m98 46 c0 -5 -7 -10 -15 -10 -11 0 -15 -12 -15 -50 0 -38 -4 -50 -15 -50
-11 0 -15 12 -15 50 0 38 -4 50 -15 50 -8 0 -15 5 -15 10 0 6 20 10 45 10 25
0 45 -4 45 -10z m40 -13 c0 -16 6 -23 20 -23 14 0 20 7 20 23 0 14 6 23 15 23
13 0 15 -11 13 -57 -2 -34 -8 -58 -15 -61 -8 -2 -13 6 -13 22 0 19 -5 26 -20
26 -15 0 -20 -7 -20 -25 0 -16 -6 -25 -15 -25 -12 0 -15 13 -15 60 0 47 3 60
15 60 9 0 15 -9 15 -23z"/>
<path d="M1751 974 c-23 -16 -23 -19 -16 -133 4 -64 9 -125 10 -136 2 -11 6
-51 10 -88 5 -47 13 -75 25 -87 26 -26 155 -63 199 -57 135 19 176 47 185 128
13 128 16 159 22 255 9 138 17 134 -226 134 -156 0 -189 -3 -209 -16z m416
-21 c-3 -5 -13 -99 -23 -209 l-17 -202 -84 -22 -83 -22 -83 22 -84 22 -17 202
c-10 110 -20 204 -23 209 -2 4 91 7 207 7 116 0 209 -3 207 -7z"/>
<path d="M1830 871 c0 -36 12 -41 106 -41 l94 0 0 -31 0 -31 -65 4 -65 4 0
-29 0 -29 60 4 61 4 -3 -35 c-2 -28 -8 -36 -30 -42 -41 -11 -82 3 -86 29 -2
16 -10 22 -28 22 -21 0 -24 -4 -24 -39 0 -39 0 -40 56 -56 50 -14 60 -15 108
-1 l53 16 7 107 c4 60 10 118 13 131 5 22 5 22 -126 22 -73 0 -131 -4 -131 -9z"/>
<path d="M939 944 c-45 -8 -106 -69 -124 -124 -28 -83 -10 -190 42 -245 47
-51 157 -71 230 -40 31 13 40 13 80 0 60 -21 119 -19 169 5 l42 21 37 -21 c40
-23 121 -26 160 -7 96 46 112 153 35 233 -39 41 -39 42 -16 48 14 3 29 18 36
36 10 25 10 34 -3 54 -33 49 -142 58 -198 17 -35 -26 -37 -26 -67 2 -34 32
-144 31 -190 -2 l-31 -22 -29 21 c-30 22 -116 34 -173 24z m134 -35 c39 -11
48 -31 25 -62 -11 -14 -19 -14 -55 -5 -82 23 -123 -13 -123 -107 0 -95 41
-130 127 -106 43 11 49 10 61 -6 7 -10 11 -24 10 -33 -5 -23 -76 -42 -136 -37
-102 10 -142 60 -142 177 0 97 19 137 80 168 48 24 94 28 153 11z m276 -14
c12 -12 13 -19 5 -33 -9 -13 -25 -17 -65 -17 -51 0 -54 -1 -54 -25 0 -20 10
-30 54 -52 66 -34 80 -52 81 -106 0 -54 -22 -88 -67 -103 -63 -21 -163 4 -163
40 0 33 24 44 63 30 19 -6 46 -9 61 -5 43 11 31 46 -26 76 -25 14 -55 33 -66
43 -47 43 -30 135 30 163 40 18 125 12 147 -11z m236 11 c27 -12 33 -19 28
-33 -12 -34 -24 -43 -43 -33 -39 21 -90 6 -90 -27 0 -7 27 -26 60 -43 74 -37
95 -66 87 -122 -7 -56 -42 -89 -100 -95 -48 -6 -108 9 -127 32 -9 10 -9 19 0
35 9 17 17 21 38 15 66 -16 88 -17 101 -1 21 25 6 44 -51 69 -64 29 -78 44
-85 96 -12 90 85 147 182 107z m-515 -98 c34 1 39 -2 45 -27 3 -16 21 -46 40
-67 l34 -38 -32 -14 c-22 -9 -38 -10 -53 -3 -13 5 -37 6 -58 1 -52 -12 -74 -3
-86 36 -16 47 -4 91 28 108 15 8 31 12 35 9 5 -3 26 -5 47 -5z m297 -16 c3
-26 -4 -27 -32 -6 -17 13 -18 16 -5 24 21 13 33 8 37 -18z"/>
</g>
</svg>
